<?xml version="1.0" encoding="UTF-8"?>
<!DOCTYPE svg PUBLIC "-//W3C//DTD SVG 1.1//EN" "http://www.w3.org/Graphics/SVG/1.1/DTD/svg11.dtd">
<!-- Creator: CorelDRAW X8 -->
<svg xmlns="http://www.w3.org/2000/svg" xml:space="preserve" width="26.9497mm" height="6.0827mm" version="1.1" style="shape-rendering:geometricPrecision; text-rendering:geometricPrecision; image-rendering:optimizeQuality; fill-rule:evenodd; clip-rule:evenodd"
viewBox="0 0 3721 840"
 xmlns:xlink="http://www.w3.org/1999/xlink">
 <defs>
  <style type="text/css">
   <![CDATA[
    .fil3 {fill:#34A853}
    .fil0 {fill:#4285F4}
    .fil1 {fill:#EA4335}
    .fil2 {fill:#FBBC05}
    .fil4 {fill:#FEFEFE;fill-rule:nonzero}
   ]]>
  </style>
 </defs>
 <g id="Слой_x0020_1">
  <metadata id="CorelCorpID_0Corel-Layer"/>
  <path class="fil0" d="M333 299l0 90 215 0c-6,50 -23,87 -49,113 -31,32 -80,66 -166,66 -132,0 -235,-107 -235,-239 0,-132 103,-239 235,-239 72,0 124,28 162,65l64 -64c-54,-52 -125,-91 -226,-91 -181,0 -333,148 -333,329 0,181 152,328 333,328 98,0 172,-32 230,-92 59,-59 78,-142 78,-210 0,-20 -2,-40 -5,-56l-303 0z"/>
  <path class="fil1" d="M909 226c-117,0 -213,89 -213,212 0,122 96,213 213,213 117,0 213,-90 213,-213 0,-123 -96,-212 -213,-212zm0 341c-64,0 -120,-53 -120,-129 0,-76 56,-128 120,-128 64,0 120,52 120,128 0,76 -56,129 -120,129z"/>
  <path class="fil0" d="M1953 274l-3 0c-21,-25 -61,-48 -112,-48 -106,0 -198,93 -198,212 0,119 92,213 198,213 51,0 91,-23 112,-49l3 0 0 30c0,81 -43,124 -113,124 -57,0 -93,-40 -107,-75l-81 33c23,57 85,126 188,126 109,0 202,-65 202,-221l0 -382 -89 0 0 37zm-107 293c-64,0 -113,-55 -113,-129 0,-75 49,-128 113,-128 64,0 113,55 113,129 1,74 -49,128 -113,128z"/>
  <path class="fil2" d="M1384 226c-117,0 -213,89 -213,212 0,122 96,213 213,213 117,0 213,-90 213,-213 0,-123 -96,-212 -213,-212zm0 341c-64,0 -120,-53 -120,-129 0,-76 56,-128 120,-128 64,0 120,52 120,128 0,76 -56,129 -120,129z"/>
  <polygon class="fil3" points="2115,9 2206,9 2206,651 2115,651 "/>
  <path class="fil1" d="M2489 567c-47,0 -81,-22 -103,-64l284 -118 -9 -24c-18,-47 -72,-135 -182,-135 -109,0 -200,86 -200,212 0,119 90,213 210,213 97,0 154,-60 177,-94l-72 -49c-24,35 -57,59 -105,59l0 0zm-6 -261c37,0 70,19 80,46l-192 80c0,-89 64,-126 112,-126z"/>
  <path class="fil4" d="M3121 233l0 414 -93 0 0 -414 93 0zm-100 -162c0,-15 5,-27 17,-37 11,-10 24,-15 39,-15 14,0 27,5 38,15 11,10 16,22 16,37 0,14 -5,27 -16,37 -11,10 -24,15 -38,15 -15,0 -28,-5 -39,-15 -12,-10 -17,-23 -17,-37zm395 -47l0 210 113 0 0 74 -113 0 0 339 -94 0 0 -339 -76 0 0 -74 76 0 0 -210 94 0zm286 0l0 436 -84 0 0 -436 84 0zm-39 619c-18,0 -32,-5 -43,-15 -12,-10 -17,-23 -17,-39 0,-16 6,-28 17,-39 12,-10 26,-15 43,-15 16,0 30,5 41,15 11,11 17,23 17,39 0,16 -6,29 -16,39 -11,10 -25,15 -42,15z"/>
 </g>
</svg>
