<?xml version="1.0" encoding="UTF-8"?>
<!DOCTYPE svg PUBLIC "-//W3C//DTD SVG 1.1//EN" "http://www.w3.org/Graphics/SVG/1.1/DTD/svg11.dtd">
<!-- Creator: CorelDRAW X8 -->
<svg xmlns="http://www.w3.org/2000/svg" xml:space="preserve" width="32.33964mm" height="7.29924mm" version="1.1" style="shape-rendering:geometricPrecision; text-rendering:geometricPrecision; image-rendering:optimizeQuality; fill-rule:evenodd; clip-rule:evenodd"
viewBox="0 0 3439 776"
 xmlns:xlink="http://www.w3.org/1999/xlink">
 <defs>
  <style type="text/css">
   <![CDATA[
    .fil0 {fill:#FEFEFE}
    .fil1 {fill:#FEFEFE;fill-rule:nonzero}
   ]]>
  </style>
 </defs>
 <g id="Слой_x0020_1">
  <metadata id="CorelCorpID_0Corel-Layer"/>
  <path class="fil0" d="M308 277l0 83 199 0c-6,46 -22,80 -45,104 -29,29 -75,61 -154,61 -122,0 -218,-99 -218,-221 0,-122 96,-221 218,-221 66,0 114,26 150,60l58 -59c-49,-48 -115,-84 -208,-84 -167,0 -308,136 -308,304 0,167 141,304 308,304 91,0 159,-30 212,-85 55,-55 72,-132 72,-194 0,-20 -1,-38 -4,-52l-280 0z"/>
  <path class="fil0" d="M840 209c-108,0 -196,82 -196,196 0,113 88,196 196,196 109,0 197,-83 197,-196 0,-114 -88,-196 -197,-196zm0 315c-59,0 -110,-49 -110,-119 0,-70 51,-119 110,-119 60,0 111,49 111,119 0,70 -51,119 -111,119z"/>
  <path class="fil0" d="M1805 253l-3 0c-19,-23 -56,-44 -103,-44 -98,0 -183,85 -183,196 0,110 85,196 183,196 47,0 84,-21 103,-44l3 0 0 27c0,75 -40,115 -104,115 -53,0 -86,-38 -99,-70l-75 31c21,52 79,116 174,116 101,0 186,-59 186,-204l0 -353 -82 0 0 34zm-99 271c-59,0 -104,-51 -104,-119 0,-69 45,-119 104,-119 59,0 105,51 105,120 0,68 -46,118 -105,118z"/>
  <path class="fil0" d="M1279 209c-108,0 -196,82 -196,196 0,113 88,196 196,196 109,0 197,-83 197,-196 0,-114 -88,-196 -197,-196zm0 315c-59,0 -110,-49 -110,-119 0,-70 51,-119 110,-119 60,0 111,49 111,119 0,70 -51,119 -111,119z"/>
  <polygon class="fil0" points="1955,8 2039,8 2039,601 1955,601 "/>
  <path class="fil0" d="M2301 524c-44,0 -75,-20 -95,-59l262 -109 -9 -22c-16,-44 -66,-125 -167,-125 -101,0 -185,79 -185,196 0,110 83,196 194,196 90,0 142,-55 164,-86l-67 -45c-23,32 -53,54 -97,54l0 0zm-6 -241c35,0 65,18 74,43l-177 73c0,-82 58,-116 103,-116z"/>
  <path class="fil1" d="M2885 216l0 382 -86 0 0 -382 86 0zm-93 -151c0,-13 6,-25 16,-34 10,-9 22,-14 36,-14 13,0 25,5 35,14 11,9 16,21 16,34 0,14 -5,25 -16,34 -10,10 -22,14 -35,14 -14,0 -26,-4 -36,-14 -11,-9 -16,-20 -16,-34zm366 -43l0 195 104 0 0 68 -104 0 0 313 -87 0 0 -313 -70 0 0 -68 70 0 0 -195 87 0zm264 0l0 403 -78 0 0 -403 78 0zm-36 572c-16,0 -30,-5 -40,-14 -10,-9 -16,-21 -16,-36 0,-14 6,-26 16,-35 11,-10 24,-15 40,-15 15,0 28,5 38,15 10,9 15,21 15,35 0,15 -5,27 -15,36 -9,9 -22,14 -38,14z"/>
 </g>
</svg>
